<?xml version="1.0" encoding="UTF-8" standalone="no"?>
<!-- Created with Inkscape (http://www.inkscape.org/) -->
<svg
   xmlns:dc="http://purl.org/dc/elements/1.1/"
   xmlns:cc="http://web.resource.org/cc/"
   xmlns:rdf="http://www.w3.org/1999/02/22-rdf-syntax-ns#"
   xmlns:svg="http://www.w3.org/2000/svg"
   xmlns="http://www.w3.org/2000/svg"
   xmlns:sodipodi="http://sodipodi.sourceforge.net/DTD/sodipodi-0.dtd"
   xmlns:inkscape="http://www.inkscape.org/namespaces/inkscape"
   width="64px"
   height="64px"
   id="svg1872"
   sodipodi:version="0.32"
   inkscape:version="0.44"
   sodipodi:docbase="/www/sites/docperl"
   sodipodi:docname="docperl.svg"
   inkscape:export-filename="/www/sites/docperl/docperl.png"
   inkscape:export-xdpi="90"
   inkscape:export-ydpi="90">
  <defs
     id="defs1874" />
  <sodipodi:namedview
     id="base"
     pagecolor="#ffffff"
     bordercolor="#666666"
     borderopacity="1.0"
     inkscape:pageopacity="0.0"
     inkscape:pageshadow="2"
     inkscape:zoom="0.5"
     inkscape:cx="32"
     inkscape:cy="31.866985"
     inkscape:current-layer="layer1"
     showgrid="true"
     inkscape:document-units="px"
     inkscape:grid-bbox="true"
     showguides="false"
     inkscape:grid-points="true"
     gridtolerance="10000"
     inkscape:window-width="1600"
     inkscape:window-height="1125"
     inkscape:window-x="0"
     inkscape:window-y="25" />
  <metadata
     id="metadata1877">
    <rdf:RDF>
      <cc:Work
         rdf:about="">
        <dc:format>image/svg+xml</dc:format>
        <dc:type
           rdf:resource="http://purl.org/dc/dcmitype/StillImage" />
      </cc:Work>
    </rdf:RDF>
  </metadata>
  <g
     id="layer1"
     inkscape:label="Layer 1"
     inkscape:groupmode="layer">
    <path
       style="fill:none;fill-opacity:0.75;fill-rule:evenodd;stroke:black;stroke-width:1px;stroke-linecap:butt;stroke-linejoin:miter;stroke-opacity:1"
       d="M 1,1 L 27,1 C 30.07947,2.1015453 31.039735,2.99117 32,6 C 33.101545,2.99117 34.273731,1.8896248 37,1 L 63,1 L 63,62 L 38,62 C 35,62 34,63 32,63 C 30,63 28,62 25,62 L 1,62 L 1,1 z "
       id="path1880"
       sodipodi:nodetypes="ccccccccccc" />
    <path
       style="fill:none;fill-opacity:0.75;fill-rule:evenodd;stroke:black;stroke-width:1px;stroke-linecap:butt;stroke-linejoin:miter;stroke-opacity:1"
       d="M 32,6 C 32,56 32,63 32,63"
       id="path1882"
       sodipodi:nodetypes="cc" />
    <path
       style="fill:none;fill-opacity:0.75;fill-rule:evenodd;stroke:black;stroke-width:1px;stroke-linecap:butt;stroke-linejoin:miter;stroke-opacity:1"
       d="M 3,1 C 3,51 3,60 3,60"
       id="path12477"
       sodipodi:nodetypes="cc" />
    <path
       style="fill:none;fill-opacity:0.75;fill-rule:evenodd;stroke:black;stroke-width:1px;stroke-linecap:butt;stroke-linejoin:miter;stroke-opacity:1"
       d="M 61,1 C 61,51 61,60 61,60"
       id="path12479"
       sodipodi:nodetypes="cc" />
    <path
       style="fill:none;fill-opacity:0.75;fill-rule:evenodd;stroke:black;stroke-width:1px;stroke-linecap:butt;stroke-linejoin:miter;stroke-opacity:1"
       d="M 59,1 C 59,51 59,58 59,58"
       id="path12481"
       sodipodi:nodetypes="cc" />
    <path
       style="fill:none;fill-opacity:0.75;fill-rule:evenodd;stroke:black;stroke-width:1px;stroke-linecap:butt;stroke-linejoin:miter;stroke-opacity:1"
       d="M 5,1 C 5,51 5,58 5,58"
       id="path12483"
       sodipodi:nodetypes="cc" />
    <path
       style="fill:none;fill-opacity:0.75;fill-rule:evenodd;stroke:black;stroke-width:1px;stroke-linecap:butt;stroke-linejoin:miter;stroke-opacity:1"
       d="M 3,60 L 25,60 C 27,60 31,62 32,63"
       id="path12495"
       sodipodi:nodetypes="ccc" />
    <path
       style="fill:none;fill-opacity:0.75;fill-rule:evenodd;stroke:black;stroke-width:1px;stroke-linecap:butt;stroke-linejoin:miter;stroke-opacity:1"
       d="M 5,58 L 25,58 C 28,58 31,60 32,63"
       id="path12499"
       sodipodi:nodetypes="ccc" />
    <path
       style="fill:none;fill-opacity:0.75;fill-rule:evenodd;stroke:black;stroke-width:1px;stroke-linecap:butt;stroke-linejoin:miter;stroke-opacity:1"
       d="M 61,60 L 38,60 C 36,60 33,62 32,63"
       id="path12506"
       sodipodi:nodetypes="ccc" />
    <path
       style="fill:none;fill-opacity:0.75;fill-rule:evenodd;stroke:black;stroke-width:1px;stroke-linecap:butt;stroke-linejoin:miter;stroke-opacity:1"
       d="M 59,58 L 38,58 C 35,58 33,60 32,63"
       id="path12508"
       sodipodi:nodetypes="ccc" />
    <path
       style="fill:none;fill-opacity:0.75;fill-rule:evenodd;stroke:blue;stroke-width:1px;stroke-linecap:butt;stroke-linejoin:miter;stroke-opacity:1"
       d="M 9,7 L 22,7"
       id="path12510"
       sodipodi:nodetypes="cc" />
    <path
       style="fill:none;fill-opacity:0.75;fill-rule:evenodd;stroke:blue;stroke-width:1px;stroke-linecap:butt;stroke-linejoin:miter;stroke-opacity:1"
       d="M 9,11 L 22,11 C 27,11 28,12 29,14"
       id="path13419"
       sodipodi:nodetypes="ccc" />
    <path
       style="fill:none;fill-opacity:0.75;fill-rule:evenodd;stroke:blue;stroke-width:1px;stroke-linecap:butt;stroke-linejoin:miter;stroke-opacity:1"
       d="M 9,15 L 22,15 C 27,15 28,16 29,18"
       id="path13421"
       sodipodi:nodetypes="ccc" />
    <path
       style="fill:none;fill-opacity:0.75;fill-rule:evenodd;stroke:blue;stroke-width:1px;stroke-linecap:butt;stroke-linejoin:miter;stroke-opacity:1"
       d="M 9,19 L 22,19 C 27,19 28,20 29,22"
       id="path13423"
       sodipodi:nodetypes="ccc" />
    <path
       style="fill:none;fill-opacity:0.75;fill-rule:evenodd;stroke:blue;stroke-width:1px;stroke-linecap:butt;stroke-linejoin:miter;stroke-opacity:1"
       d="M 9,23 L 22,23 C 27,23 28,24 29,26"
       id="path13425"
       sodipodi:nodetypes="ccc" />
    <path
       style="fill:none;fill-opacity:0.75;fill-rule:evenodd;stroke:blue;stroke-width:1px;stroke-linecap:butt;stroke-linejoin:miter;stroke-opacity:1"
       d="M 9,27 L 22,27 C 27,27 28,28 29,30"
       id="path13427"
       sodipodi:nodetypes="ccc" />
    <path
       style="fill:none;fill-opacity:0.75;fill-rule:evenodd;stroke:blue;stroke-width:1px;stroke-linecap:butt;stroke-linejoin:miter;stroke-opacity:1"
       d="M 9,31 L 17,31"
       id="path13429"
       sodipodi:nodetypes="cc" />
    <path
       style="fill:none;fill-opacity:0.75;fill-rule:evenodd;stroke:blue;stroke-width:1px;stroke-linecap:butt;stroke-linejoin:miter;stroke-opacity:1"
       d="M 9,35 L 22,35 C 27,35 28,36 29,38"
       id="path13431"
       sodipodi:nodetypes="ccc" />
    <path
       style="fill:none;fill-opacity:0.75;fill-rule:evenodd;stroke:blue;stroke-width:1px;stroke-linecap:butt;stroke-linejoin:miter;stroke-opacity:1"
       d="M 9,39 L 22,39 C 27,39 28,40 29,42"
       id="path13433"
       sodipodi:nodetypes="ccc" />
    <path
       style="fill:none;fill-opacity:0.75;fill-rule:evenodd;stroke:blue;stroke-width:1px;stroke-linecap:butt;stroke-linejoin:miter;stroke-opacity:1"
       d="M 9,43 L 22,43 C 27,43 28,44 29,46"
       id="path13435"
       sodipodi:nodetypes="ccc" />
    <path
       style="fill:none;fill-opacity:0.75;fill-rule:evenodd;stroke:blue;stroke-width:1px;stroke-linecap:butt;stroke-linejoin:miter;stroke-opacity:1"
       d="M 9,47 L 22,47 C 27,47 28,48 29,50"
       id="path13437"
       sodipodi:nodetypes="ccc" />
    <path
       style="fill:none;fill-opacity:0.75;fill-rule:evenodd;stroke:blue;stroke-width:1px;stroke-linecap:butt;stroke-linejoin:miter;stroke-opacity:1"
       d="M 9,51 L 22,51 C 27,51 28,52 29,54"
       id="path13439"
       sodipodi:nodetypes="ccc" />
    <path
       style="fill:none;fill-opacity:0.75;fill-rule:evenodd;stroke:blue;stroke-width:1px;stroke-linecap:butt;stroke-linejoin:miter;stroke-opacity:1"
       d="M 56,11 L 46,11"
       id="path13441"
       sodipodi:nodetypes="cc" />
    <path
       style="fill:none;fill-opacity:0.75;fill-rule:evenodd;stroke:blue;stroke-width:1px;stroke-linecap:butt;stroke-linejoin:miter;stroke-opacity:1"
       d="M 56,7 L 43,7 C 38,7 37,8 36,10"
       id="path13443"
       sodipodi:nodetypes="ccc" />
    <path
       style="fill:none;fill-opacity:0.75;fill-rule:evenodd;stroke:blue;stroke-width:1px;stroke-linecap:butt;stroke-linejoin:miter;stroke-opacity:1"
       d="M 56,15 L 43,15 C 38,15 37,16 36,18"
       id="path13445"
       sodipodi:nodetypes="ccc" />
    <path
       style="fill:none;fill-opacity:0.75;fill-rule:evenodd;stroke:blue;stroke-width:1px;stroke-linecap:butt;stroke-linejoin:miter;stroke-opacity:1"
       d="M 56,19 L 43,19 C 38,19 37,20 36,22"
       id="path13447"
       sodipodi:nodetypes="ccc" />
    <path
       style="fill:none;fill-opacity:0.75;fill-rule:evenodd;stroke:blue;stroke-width:1px;stroke-linecap:butt;stroke-linejoin:miter;stroke-opacity:1"
       d="M 56,23 L 43,23 C 38,23 37,24 36,26"
       id="path13449"
       sodipodi:nodetypes="ccc" />
    <path
       style="fill:none;fill-opacity:0.75;fill-rule:evenodd;stroke:blue;stroke-width:1px;stroke-linecap:butt;stroke-linejoin:miter;stroke-opacity:1"
       d="M 56,27 L 43,27 C 38,27 37,28 36,30"
       id="path13451"
       sodipodi:nodetypes="ccc" />
    <path
       style="fill:none;fill-opacity:0.75;fill-rule:evenodd;stroke:blue;stroke-width:1px;stroke-linecap:butt;stroke-linejoin:miter;stroke-opacity:1"
       d="M 56,39 L 45,39"
       id="path13453"
       sodipodi:nodetypes="cc" />
    <path
       style="fill:none;fill-opacity:0.75;fill-rule:evenodd;stroke:blue;stroke-width:1px;stroke-linecap:butt;stroke-linejoin:miter;stroke-opacity:1"
       d="M 56,31 L 43,31 C 38,31 37,32 36,34"
       id="path13455"
       sodipodi:nodetypes="ccc" />
    <path
       style="fill:none;fill-opacity:0.75;fill-rule:evenodd;stroke:blue;stroke-width:1px;stroke-linecap:butt;stroke-linejoin:miter;stroke-opacity:1"
       d="M 56,35 L 43,35 C 38,35 37,36 36,38"
       id="path13457"
       sodipodi:nodetypes="ccc" />
    <path
       style="fill:none;fill-opacity:0.75;fill-rule:evenodd;stroke:blue;stroke-width:1px;stroke-linecap:butt;stroke-linejoin:miter;stroke-opacity:1"
       d="M 56,43 L 43,43 C 38,43 37,44 36,46"
       id="path13459"
       sodipodi:nodetypes="ccc" />
    <path
       style="fill:none;fill-opacity:0.75;fill-rule:evenodd;stroke:blue;stroke-width:1px;stroke-linecap:butt;stroke-linejoin:miter;stroke-opacity:1"
       d="M 56,47 L 43,47 C 38,47 37,48 36,50"
       id="path13461"
       sodipodi:nodetypes="ccc" />
    <path
       style="fill:none;fill-opacity:0.75;fill-rule:evenodd;stroke:blue;stroke-width:1px;stroke-linecap:butt;stroke-linejoin:miter;stroke-opacity:1"
       d="M 56,51 L 43,51 C 38,51 37,52 36,54"
       id="path13463"
       sodipodi:nodetypes="ccc" />
  </g>
</svg>
